:SAMPLES-PER-SECOND 30
:FULLY-SPECIFIED
:DEGREES
349
root  -3.52811 40.9745 0.481902 -25.5035 -89.1205 32.5447
RightUpLeg  -0.789637 -1.08099 -2.254
RightLeg  -5.54864 -20.4505 2.08641
RightFoot  0.949969 -0.343712 3.25755
RightToes  -3.11842e-008 1.75238e-005 3.56266e-009
Spine  5.15954 -0.277663 -4.01769
Spine1  -22.8201 -0.217653 1.86286
HEad  -12.6401 -0.336342 -1.79455
LeftShoulder1  3.63045 -7.64259 -26.4666
LeftArm  33.4723 -1.31482 -24.0112
LeftForeArm  141.761 -64.2382 -156.689
LeftHand  -0.513108 -3.07814 7.25933
RightShoulder  2.75275 6.26018 21.9417
RightArm  -4.60864 30.4722 31.7487
RightForeArm  109.329 54.467 161.8
RightHand  -1.3074 5.96565 -13.6213
LeftUpLeg  -1.49088 -0.500534 1.45014
LeftLeg  -7.00139 15.5813 -2.16941
LeftFoot  2.4386 0.17233 -1.54867
LeftToes  4.7713e-008 1.46693e-008 1.32589e-009
350
root  -3.54057 40.9728 0.497772 -33.9501 -89.238 41.0196
RightUpLeg  -0.861353 -1.10578 -2.31555
RightLeg  -5.45241 -20.2517 2.0312
RightFoot  0.911963 -0.348515 3.31928
RightToes  -3.11842e-008 1.75238e-005 3.56266e-009
Spine  4.86023 -0.277672 -3.82652
Spine1  -22.8346 -0.210934 1.71029
HEad  -11.7939 -0.838383 -2.0301
LeftShoulder1  3.63021 -7.70183 -26.2831
LeftArm  29.4332 -4.27534 -24.0874
LeftForeArm  134.524 -66.199 -153.813
LeftHand  -0.388554 -2.39651 6.00635
RightShoulder  2.62545 5.99025 21.3689
RightArm  -4.98775 31.9058 31.8168
RightForeArm  108.493 53.9396 162.08
RightHand  -1.37313 5.64303 -14.6761
LeftUpLeg  -1.44313 -0.514722 1.40776
LeftLeg  -7.08365 15.7442 -2.23587
LeftFoot  2.44085 0.173622 -1.55933
LeftToes  4.7713e-008 1.46693e-008 1.32589e-009
351
root  -3.55349 40.9683 0.513438 -40.0116 -89.2993 47.1817
RightUpLeg  -0.997868 -1.10382 -2.35558
RightLeg  -5.37623 -20.1805 1.99608
RightFoot  0.86665 -0.350024 3.33295
RightToes  -3.11842e-008 1.75238e-005 3.56266e-009
Spine  4.58544 -0.220064 -3.65285
Spine1  -23.0595 -0.147512 1.58841
HEad  -11.3203 -1.17505 -2.14795
LeftShoulder1  3.47307 -7.29962 -26.028
LeftArm  25.4222 -7.8923 -24.6192
LeftForeArm  127.15 -68.5346 -149.929
LeftHand  -0.320304 -1.79646 5.36275
RightShoulder  2.5354 5.79117 20.9699
RightArm  -4.51585 31.9861 31.1262
RightForeArm  106.422 52.7517 162.683
RightHand  -1.32341 5.49002 -14.3509
LeftUpLeg  -1.56905 -0.508554 1.38545
LeftLeg  -6.9872 15.8381 -2.26573
LeftFoot  2.35905 0.175099 -1.57673
LeftToes  4.7713e-008 1.46693e-008 1.32589e-009
352
root  -3.56571 40.9644 0.53551 -39.0511 -89.2629 46.4238
RightUpLeg  -1.25731 -1.1073 -2.40794
RightLeg  -5.23197 -20.2114 1.9404
RightFoot  0.784023 -0.35675 3.43021
RightToes  -3.11842e-008 1.75238e-005 3.56266e-009
Spine  3.827 -0.355539 -3.25499
Spine1  -22.6023 -0.269562 1.21385
HEad  -10.8972 -0.995362 -2.10782
LeftShoulder1  3.36472 -7.00132 -25.8992
LeftArm  20.6516 -11.5136 -24.6775
LeftForeArm  118.951 -70.2302 -146.144
LeftHand  -0.275303 -0.666716 5.37823
RightShoulder  2.49714 5.72939 20.7138
RightArm  -2.28263 31.125 30.0295
RightForeArm  105.432 51.1616 163.518
RightHand  -1.25673 5.0183 -14.2433
LeftUpLeg  -1.75721 -0.578943 1.32807
LeftLeg  -7.02472 15.8738 -2.28245
LeftFoot  2.36721 0.154966 -1.40913
LeftToes  4.7713e-008 1.46693e-008 1.32589e-009
353
root  -3.58317 40.9575 0.557473 -37.244 -89.0507 44.9467
RightUpLeg  -1.62797 -1.16182 -2.55023
RightLeg  -5.09255 -20.3727 1.88921
RightFoot  0.702846 -0.363999 3.5378
RightToes  -3.11842e-008 1.75238e-005 3.56266e-009
Spine  3.20254 -0.503549 -2.69651
Spine1  -22.3625 -0.414411 0.448024
HEad  -10.6594 -0.783738 -2.13013
LeftShoulder1  3.16564 -6.56749 -25.28
LeftArm  15.4122 -14.7214 -25.2791
LeftForeArm  112.967 -71.327 -143.23
LeftHand  -0.228369 0.149858 5.09265
RightShoulder  2.31475 5.20828 20.2147
RightArm  2.09956 29.1502 29.0013
RightForeArm  105.475 49.3854 164.416
RightHand  -1.26856 5.50684 -13.7216
LeftUpLeg  -2.07155 -0.760529 1.17664
LeftLeg  -7.10027 15.8032 -2.28155
LeftFoot  2.43488 0.134976 -1.23981
LeftToes  4.7713e-008 1.46693e-008 1.32589e-009
